{"title":"White House Down 2013 BRRip 720p x264 AAC - PRiSTINE [P2PDL]","uid":9040066,"size":794813093,"categoryP":"video","categoryS":"hd___movies","magnet":"?xt=urn:btih:d3810633bc24737defd7d9c7bf69dbedaa37f8d3&amp;dn=White+House+Down+2013+BRRip+720p+x264+AAC+-+PRiSTINE+%5BP2PDL%5D&amp;tr=udp%3A%2F%2Ftracker.openbittorrent.com%3A80&amp;tr=udp%3A%2F%2Fopen.demonii.com%3A1337&amp;tr=udp%3A%2F%2Ftracker.coppersurfer.tk%3A6969&amp;tr=udp%3A%2F%2Fexodus.desync.com%3A6969","seeders":2,"leechers":0,"uploader":"ValidusVyto","files":-1,"time":1381604904,"description":"_______ Visit us at our Semi Public Bittorrent Community ________\n  &lt;a href=&quot;\nhttp://p2pdl.com&quot; rel=&quot;nofollow&quot; target=&quot;_NEW&quot;&gt;\nhttp://p2pdl.com&lt;/a&gt;  _____________________________ &lt;a href=&quot; http://p2pdl.com&quot; rel=&quot;nofollow&quot; target=&quot;_NEW&quot;&gt; http://p2pdl.com&lt;/a&gt;\n\n\n\nWhite House Down 2013 BRRip 720p x264 AAC - PRiSTINE\n\n\nGenre: Action | Drama | Thriller\nPlot: While on a tour of the White House with his young daughter, a Capitol policeman\nsprings into action to save his child and protect the president from a heavily armed\ngroup of paramilitary invaders. \nDirector: Roland Emmerich\nStars: Channing Tatum, Jamie Foxx, Maggie Gyllenhaal.\nRated: PG-13 for prolonged sequences of action and violence including intense gunfire\nand explosions, some language and a brief sexual image.\n\n\nIMDb: &lt;a href=&quot;\nhttp://www.imdb.com/title/tt2334879/&quot; rel=&quot;nofollow&quot; target=&quot;_NEW&quot;&gt;\nhttp://www.imdb.com/title/tt2334879/&lt;/a&gt;\n\n\nFormat                         : MPEG-4\nFile size                      : 751 MiB\nDuration                       : 2h 11mn\nOverall bit rate               : 798 Kbps\n\nVideo\nFormat                         : AVC\nBit rate                       : 716 Kbps\nWidth                          : 1 280 pixels\nHeight                         : 536 pixels\nDisplay aspect ratio           : 2.40:1\nFrame rate mode                : Constant\nFrame rate                     : 23.976 fps\nBit depth                      : 10 bits\nStream size                    : 673 MiB (90%)\nWriting library                : x264 core 138 r2358\n\nAudio\nFormat                         : AAC\nBit rate mode                  : Variable\nBit rate                       : 80.0 Kbps\nChannel(s)                     : 2 channels\nChannel positions              : Front: L R\nSampling rate                  : 48.0 KHz\nStream size                    : 75.3 MiB (10%)\n\n\nSubtitle                       : Yes (English)\n\nSource                         : 720p.BluRay.DTS.x264-PublicHD\n &lt;a href=&quot;\nhttp://someimage.com/kHuEOzZ&quot; rel=&quot;nofollow&quot; target=&quot;_NEW&quot;&gt;\nhttp://someimage.com/kHuEOzZ&lt;/a&gt; &lt;a href=&quot;\nhttp://someimage.com/Vw4yaNf&quot; rel=&quot;nofollow&quot; target=&quot;_NEW&quot;&gt;\nhttp://someimage.com/Vw4yaNf&lt;/a&gt; &lt;a href=&quot;\nhttp://someimage.com/H0Lo3Bn&quot; rel=&quot;nofollow&quot; target=&quot;_NEW&quot;&gt;\nhttp://someimage.com/H0Lo3Bn&lt;/a&gt; &lt;a href=&quot;\nhttp://someimage.com/b3qsH1Y&quot; rel=&quot;nofollow&quot; target=&quot;_NEW&quot;&gt;\nhttp://someimage.com/b3qsH1Y&lt;/a&gt; &lt;a href=&quot;\nhttp://someimage.com/z0EJyZe&quot; rel=&quot;nofollow&quot; target=&quot;_NEW&quot;&gt;\nhttp://someimage.com/z0EJyZe&lt;/a&gt; &lt;a href=&quot;\nhttp://someimage.com/co3XLYl&quot; rel=&quot;nofollow&quot; target=&quot;_NEW&quot;&gt;\nhttp://someimage.com/co3XLYl&lt;/a&gt; &lt;a href=&quot;\nhttp://someimage.com/MBrjs2y&quot; rel=&quot;nofollow&quot; target=&quot;_NEW&quot;&gt;\nhttp://someimage.com/MBrjs2y&lt;/a&gt; &lt;a href=&quot;\nhttp://someimage.com/luLno1F&quot; rel=&quot;nofollow&quot; target=&quot;_NEW&quot;&gt;\nhttp://someimage.com/luLno1F&lt;/a&gt;\n\n\n----------------------------------------------------------------------------------------------------\n\n\nEncoded using revolutionary 10bit encoding, which enables us to provide you more crispier \nand sharper images at small sizes, just make sure you follow our instructions without a fault.\nRecommend to you to use latest version of VLC player. Install K-Lite Codec Pack or shark007 codecs\nin case of any kind of problem in playback (For non-VLC Media Player users). Alternatively, install\nCore AVC codecs, the fastest decoder that there is coupled with Community Center Codec Pack and play\non Windows Media Player Classic. Check sample to be sure.\nEnjoy!\n\nEncoder Notes:Looking For Early Access To Anything You Can Provide DVDScr, R5, DVDR, BluRay, Direct\nAudio, Music Releases and Seedboxes. We require dedicated servers, so as to do more \nand fast releases of movies.\nIf You Got anything to offer please contact us at &quot;&lt;a class=&quot;__cf_email__&quot; href=&quot;/cdn-cgi/l/email-protection&quot; data-cfemail=&quot;b4c4c6d3f4dcc1c7dc9ad7dbd9&quot;&gt;[email&amp;#160;protected]&lt;/a&gt;&lt;script cf-hash='f9e31' type=&quot;text/javascript&quot;&gt;\n/* &lt;![CDATA[ */!function(){try{var t=&quot;currentScript&quot;in document?document.currentScript:function(){for(var t=document.getElementsByTagName(&quot;script&quot;),e=t.length;e--;)if(t[e].getAttribute(&quot;cf-hash&quot;))return t[e]}();if(t&amp;&amp;t.previousSibling){var e,r,n,i,c=t.previousSibling,a=c.getAttribute(&quot;data-cfemail&quot;);if(a){for(e=&quot;&quot;,r=parseInt(a.substr(0,2),16),n=2;a.length-n;n+=2)i=parseInt(a.substr(n,2),16)^r,e+=String.fromCharCode(i);e=document.createTextNode(e),c.parentNode.replaceChild(e,c)}}}catch(u){}}();/* ]]&gt; */&lt;/script&gt;&quot;.\n\nFacebook Fan Page:  \nSearch P2PDL on FB and hit like!!!\n\nFor more of our team uploads visit @                                             &lt;a href=&quot; http://thepiratebay.se/user/vitamin_x&quot; rel=&quot;nofollow&quot; target=&quot;_NEW&quot;&gt; http://thepiratebay.se/user/vitamin_x&lt;/a&gt;\t","torrent":{"xt":"urn:btih:d3810633bc24737defd7d9c7bf69dbedaa37f8d3","amp;dn":"White+House+Down+2013+BRRip+720p+x264+AAC+-+PRiSTINE+%5BP2PDL%5D","amp;tr":["udp%3A%2F%2Ftracker.openbittorrent.com%3A80","udp%3A%2F%2Fopen.demonii.com%3A1337","udp%3A%2F%2Ftracker.coppersurfer.tk%3A6969","udp%3A%2F%2Fexodus.desync.com%3A6969"],"infoHash":"d3810633bc24737defd7d9c7bf69dbedaa37f8d3","infoHashBuffer":{"type":"Buffer","data":[211,129,6,51,188,36,115,125,239,215,217,199,191,105,219,237,170,55,248,211]},"announce":[],"urlList":[]}}